<svg width="1024" height="1024" viewBox="0 0 1024 1024" fill="none" xmlns="http://www.w3.org/2000/svg">
  <defs>
    <linearGradient id="tile" x1="170" y1="128" x2="850" y2="882" gradientUnits="userSpaceOnUse">
      <stop stop-color="#FFFFFF"/>
      <stop offset="1" stop-color="#E9EEF4"/>
    </linearGradient>
    <linearGradient id="smark" x1="268" y1="190" x2="748" y2="790" gradientUnits="userSpaceOnUse">
      <stop stop-color="#5FE0D4"/>
      <stop offset="0.5" stop-color="#45BF87"/>
      <stop offset="1" stop-color="#8B7CFF"/>
    </linearGradient>
    <linearGradient id="panel" x1="330" y1="378" x2="708" y2="670" gradientUnits="userSpaceOnUse">
      <stop stop-color="#FFFFFF"/>
      <stop offset="1" stop-color="#F3F7FA"/>
    </linearGradient>
    <filter id="shadow" x="90" y="96" width="844" height="856" filterUnits="userSpaceOnUse" color-interpolation-filters="sRGB">
      <feFlood flood-opacity="0" result="BackgroundImageFix"/>
      <feColorMatrix in="SourceAlpha" type="matrix" values="0 0 0 0 0 0 0 0 0 0 0 0 0 0 0 0 0 0 127 0" result="hardAlpha"/>
      <feOffset dy="28"/>
      <feGaussianBlur stdDeviation="34"/>
      <feComposite in2="hardAlpha" operator="out"/>
      <feColorMatrix type="matrix" values="0 0 0 0 0.05 0 0 0 0 0.08 0 0 0 0 0.12 0 0 0 0.22 0"/>
      <feBlend mode="normal" in2="BackgroundImageFix" result="effect1_dropShadow"/>
      <feBlend mode="normal" in="SourceGraphic" in2="effect1_dropShadow" result="shape"/>
    </filter>
    <filter id="softGlow" x="184" y="156" width="674" height="724" filterUnits="userSpaceOnUse" color-interpolation-filters="sRGB">
      <feGaussianBlur stdDeviation="18"/>
    </filter>
  </defs>

  <g transform="translate(-66.56 -66.56) scale(1.13)">
  <g filter="url(#shadow)">
    <rect x="158" y="142" width="708" height="708" rx="188" fill="url(#tile)" stroke="#DDE4EC" stroke-width="18"/>

    <g filter="url(#softGlow)" opacity="0.32">
      <path d="M328 304C379 234 476 203 592 223C669 236 724 267 759 304L687 400C657 369 610 348 556 344C495 340 449 354 430 381C412 407 431 430 502 450L579 472C702 507 766 570 750 665C732 771 625 827 491 805C393 789 318 746 272 686L351 594C385 636 434 665 499 676C570 688 619 670 629 635C637 606 611 584 544 565L468 543C342 507 281 447 300 351C303 335 312 318 328 304Z" fill="url(#smark)"/>
    </g>

    <path d="M328 304C379 234 476 203 592 223C669 236 724 267 759 304L687 400C657 369 610 348 556 344C495 340 449 354 430 381C412 407 431 430 502 450L579 472C702 507 766 570 750 665C732 771 625 827 491 805C393 789 318 746 272 686L351 594C385 636 434 665 499 676C570 688 619 670 629 635C637 606 611 584 544 565L468 543C342 507 281 447 300 351C303 335 312 318 328 304Z" fill="url(#smark)"/>

    <path d="M380 333C421 299 483 284 560 291C616 296 661 313 695 340" stroke="#FFFFFF" stroke-opacity="0.8" stroke-width="20" stroke-linecap="round"/>
    <path d="M340 682C382 724 433 750 498 760C579 773 656 746 687 693" stroke="#17202A" stroke-opacity="0.16" stroke-width="18" stroke-linecap="round"/>

    <circle cx="704" cy="402" r="46" fill="#45BF87" stroke="#FFFFFF" stroke-width="18"/>
    <circle cx="704" cy="402" r="15" fill="#FFFFFF"/>
    <circle cx="324" cy="650" r="38" fill="#8B7CFF" stroke="#FFFFFF" stroke-width="18"/>
    <circle cx="324" cy="650" r="13" fill="#FFFFFF"/>
  </g>
  </g>
</svg>
